<svg width="450" height="597" xmlns="http://www.w3.org/2000/svg" stroke="null" vector-effect="non-scaling-stroke"><path d="M281.484 277.865c-5.898 3.205-3.718 12.05 2.991 12.05 6.282 0 8.846-8.29 3.59-11.709-1.71-1.153-4.83-1.324-6.581-.341zm6.923 2.18c.983 1.067 1.196 1.751 1.196 3.418 0 4.786-5.213 7.18-8.632 3.974-2.35-2.18-2.479-5.64-.214-7.65 1.325-1.239 1.966-1.41 4.316-1.239 1.753.129 2.35.385 3.334 1.496z" vector-effect="non-scaling-stroke"/><path d="M281.056 282.18c0 .214.47.343 1.069.343.598 0 1.196-.129 1.325-.342.128-.214-.385-.385-1.069-.385-.726 0-1.325.171-1.325.385zm2.992 1.326c0 .94.214 1.709.427 1.709.257 0 .428-.427.428-.983.042-.94.042-.94.683-.085l.641.854.513-.854c.47-.812.47-.812.77.213.256.855.299.727.341-.769.043-1.966-.513-2.35-1.282-.855l-.513.983-.427-.983c-.726-1.58-1.581-1.153-1.581.77zm-134.872 1.709c-2.65 1.71-5.213 6.325-6.41 11.538-.513 2.223-.983 3.12-2.436 4.573-.983 1.026-1.88 1.838-2.051 1.838-.128 0-.385-2.009-.47-4.445-.3-5.299-.727-6.325-2.564-6.154-1.112.086-1.539.47-2.35 2.052-1.454 2.692-2.522 3.718-5.642 5.256-2.521 1.24-3.162 1.368-6.667 1.368-2.991-.043-4.7-.3-7.692-1.24-3.931-1.239-10-4.06-14.53-6.837-1.41-.855-3.077-1.539-3.76-1.539-1.41 0-2.864 1.368-2.864 2.693 0 1.324 1.154 2.863 2.18 2.863.897 0 1.025-.513.384-1.71-.555-1.068-.128-2.136.898-2.136.427 0 1.71.555 2.863 1.282 3.633 2.222 11.752 5.897 15.043 6.795 8.248 2.265 13.675 1.367 18.248-3.077 1.025-.94 1.923-1.667 2.008-1.539.128.086.342 2.65.513 5.641l.3 5.428-1.71 2.435c-3.163 4.53-3.932 7.65-2.18 8.847 1.453 1.025 2.436.812 3.975-.727 1.71-1.71 3.034-5.684 3.461-10.3.257-3.033.385-3.247 2.094-4.956l1.795-1.752.214 3.162c.256 4.103 1.837 7.521 4.06 8.889 1.837 1.154 5.683 1.282 7.606.299 2.35-1.24 4.958-4.744 4.146-5.556-.385-.384-1.069.086-2.778 1.923-2.308 2.48-3.333 2.906-5.043 2.009-1.88-1.026-2.222-2.692-1.966-10.043.342-10.213 2.223-16.453 4.958-16.453 2.18 0 2.692 1.154 2.393 5.171-.3 3.547-.3 3.59 1.11 5.727.813 1.154 2.351 2.778 3.42 3.59l1.966 1.452-1.496 4.103c-1.88 5.256-2.137 9.7-.641 11.24 1.282 1.239 3.461 1.239 5.043 0 .683-.556 2.35-2.48 3.76-4.274 1.368-1.795 2.607-3.376 2.692-3.462.086-.085.513.129.983.556 2.394 2.18 5.428 1.624 8.633-1.667l2.265-2.307 1.24 1.453c2.264 2.777 3.46 1.965 7.435-4.83 1.068-1.794 1.795-2.82 1.667-2.222-1.453 6.966-1.453 13.29.042 15.3 1.41 1.88 2.735 1.709 4.744-.556.94-1.069 2.35-3.205 3.162-4.701 1.197-2.35 1.453-2.607 1.624-1.795.214.77.599.983 1.966 1.068 2.009.129 2.222-.042 3.59-3.547 1.624-4.145 4.658-10.042 5.77-11.153 2.52-2.522 2.435-.428-.257 7.692-.94 2.82-1.581 5.385-1.496 5.684.342.812 2.991.683 3.76-.214.343-.385 2.052-3.462 3.761-6.752 3.462-6.752 5.641-10 6.667-10 .77 0 .684.94-.94 8.162-1.624 7.308-2.137 12.393-1.496 14.787.727 2.82 1.496 3.547 3.675 3.547 3.205 0 4.573-1.624 9.787-11.753 3.846-7.393 6.965-12.094 9.273-13.888 4.274-3.42 11.24-5.129 17.778-4.317 11.71 1.41 20.598 8.505 21.367 17.094.214 2.308.129 2.65-.854 3.633-1.111 1.11-1.923 1.11-3.163.128-.299-.214-.555-1.24-.555-2.308 0-1.324-.214-1.923-.684-2.136-1.111-.428-1.966 1.11-1.752 3.034.342 2.436 1.538 3.461 4.188 3.461 1.923 0 2.308-.17 3.205-1.282 1.538-1.923 1.453-5.555-.256-9.102-2.864-6.069-9.488-10.94-17.906-13.077-3.59-.94-11.496-.898-14.616 0-7.65 2.265-10.342 5.17-17.436 18.931-4.743 9.06-8.162 12.864-8.162 9.017 0-.64.598-4.102 1.282-7.606 1.966-9.872 1.71-15.385-.812-16.752-1.538-.812-2.82-.47-4.402 1.153-1.624 1.71-4.743 6.582-5.769 9.06-.855 2.009-1.026 1.496-.513-1.71.3-2.093.3-3.162-.128-4.444-1.24-3.803-4.316-1.752-8.034 5.342-1.795 3.419-2.35 3.76-1.41.855.555-1.71 1.795-8.718 1.58-9.06-.341-.555-2.99-.427-3.503.171-.214.3-.812 2.479-1.282 4.872-1.112 5.384-5.214 14.188-8.12 17.35-1.325 1.41-1.624 1.496-1.923.3-.342-1.368.342-5.385 2.35-13.334l1.838-7.222-1.026-.855c-.726-.555-1.325-.726-1.923-.513-.513.171-1.966.3-3.205.257-3.077-.086-5.256.513-6.923 1.923-1.838 1.538-3.376 4.957-3.376 7.478 0 1.88-.171 2.18-2.692 4.787-3.804 4.017-5.599 3.846-6.154-.513-.214-1.752-.086-2.393.64-3.419 1.625-2.265 4.36-8.333 4.36-9.7 0-1.796-.684-2.351-2.949-2.351-1.667 0-2.094.214-3.632 1.837-2.821 2.906-3.847 7.607-2.65 12.18l.684 2.65-2.564 3.59c-2.693 3.803-4.915 5.982-5.641 5.555-.684-.428 0-3.633 1.88-9.103.94-2.735 1.752-5.342 1.795-5.769.043-.598-.855-1.367-3.248-2.735l-3.29-1.923.256-2.009c.256-2.265-.3-3.718-1.71-4.23-.726-.257-.897-.684-.94-2.35 0-1.753-.213-2.223-1.41-3.291-1.71-1.539-4.316-1.667-6.325-.385zm8.846 8.29c.342.727.342 1.24.043 1.795-.427.727-.513.684-1.068-.683-.385-.812-.556-1.624-.47-1.795.384-.641 1.025-.342 1.495.684zm19.487.428c-.299 1.838-3.632 8.803-4.23 8.803-.556 0-.214-3.034.683-5.512 1.325-3.89 4.06-6.41 3.547-3.291zm16.368 1.197c0 .64-4.017 8.12-5.641 10.47-1.667 2.435-2.222 2.393-1.923-.257.299-2.692 2.521-7.564 4.23-9.359 1.325-1.325 3.334-1.88 3.334-.854zm-59.786 18.717c-.513 3.975-1.325 5.385-2.65 4.659-1.154-.599-1.025-1.753.513-4.787 1.367-2.735 2.094-3.846 2.393-3.547.086.086-.043 1.752-.256 3.675z" vector-effect="non-scaling-stroke"/><path d="M133.279 287.437c-.684.684-.641 2.265.128 2.906.812.684 1.923.428 2.607-.64 1.11-1.668-1.325-3.676-2.735-2.266z" vector-effect="non-scaling-stroke"/><path fill="none" d="M490.693 283.989l.055 2.05" stroke="none"/><path stroke="#000" fill="none" stroke-linecap="round" vector-effect="non-scaling-stroke" d="M490.693 283.989l.055 1.828"/><path stroke="#000" stroke-linecap="round" fill="none" d="M282.327 282.302v1.844"/></svg>