<?xml version="1.0" encoding="utf-8"?><svg xmlns="http://www.w3.org/2000/svg" xmlns:xlink="http://www.w3.org/1999/xlink"><symbol viewBox="0 0 44 44" id="mob-logo" xmlns="http://www.w3.org/2000/svg"><defs><linearGradient id="aa" x1="9.77" x2="34.23" y1="48.5" y2="48.5" gradientUnits="userSpaceOnUse"><stop offset="0" stop-color="#65bab7"/><stop offset="1" stop-color="#4b77b0"/></linearGradient><linearGradient id="ab" x1="11.4" x2="16.96" y1="15.33" y2="20.16" gradientUnits="userSpaceOnUse"><stop offset="0" stop-color="#65bab7"/><stop offset="1" stop-color="#4b77b0"/></linearGradient><linearGradient id="ac" x1="11.63" x2="15.5" y1="13.18" y2="17.53" gradientUnits="userSpaceOnUse"><stop offset="0" stop-color="#65bab7"/><stop offset="1" stop-color="#4b77b0" stop-opacity="0"/></linearGradient><linearGradient id="ad" x1="9.77" x2="34.23" y1="11.88" y2="11.88" gradientUnits="userSpaceOnUse"><stop offset="0" stop-color="#65bab7"/><stop offset="1" stop-color="#4b77b0"/></linearGradient><linearGradient id="ae" x1="9.77" x2="29.06" y1="38.38" y2="38.38" gradientUnits="userSpaceOnUse"><stop offset="0" stop-color="#65bab7"/><stop offset="1" stop-color="#4b77b0"/></linearGradient><linearGradient id="af" x1="16.91" x2="27.43" y1="4.14" y2="15.96" gradientUnits="userSpaceOnUse"><stop offset="0" stop-color="#65bab7" stop-opacity="0"/><stop offset="1" stop-color="#4b77b0"/></linearGradient><linearGradient id="ag" x1="16.91" x2="27.43" y1="40.77" y2="52.59" gradientUnits="userSpaceOnUse"><stop offset="0" stop-color="#65bab7" stop-opacity="0"/><stop offset="1" stop-color="#4b77b0"/></linearGradient><linearGradient id="ah" x1="16.91" x2="24.11" y1="31.69" y2="39.78" gradientUnits="userSpaceOnUse"><stop offset="0" stop-color="#65bab7" stop-opacity="0"/><stop offset="1" stop-color="#4b77b0"/></linearGradient></defs><path fill="#fff" d="M14 44C6.268 44 0 37.732 0 30V14C0 6.268 6.268 0 14 0h16c7.732 0 14 6.268 14 14v16c0 7.732-6.268 14-14 14z"/><path fill="url(#aa)" d="M12.773 35.25a3 3 0 01-3-3v-3.26h21.454a3 3 0 013 3v3.26z"/><path fill="url(#ab)" d="M9.773 18.87v-3.86h6.97v3.86z"/><path fill="url(#ac)" d="M16.743 16.94v-1.93h-6.97l2.348 1.93z" opacity=".75"/><path fill="url(#ad)" d="M9.773 15.01v-3.26a3 3 0 013-3h21.454v3.26a3 3 0 01-3 3z"/><path fill="url(#ae)" d="M12.773 25.13a3 3 0 01-3-3v-3.26h16.284a3 3 0 013 3v3.26z"/><path fill="url(#af)" d="M10.062 11.287h24.165V8.75H13.805a4.032 4.032 0 00-3.743 2.537z" opacity=".75"/><path fill="url(#ag)" d="M10.062 32.713h24.165v2.537H13.805a4.031 4.031 0 01-3.743-2.537z" opacity=".75"/><path fill="url(#ah)" d="M15.345 25.13a5.54 5.54 0 01-3.286-1.079h16.978c.01.13.02.259.02.39v.689z" opacity=".75"/></symbol></svg>