<?xml version="1.0" encoding="utf-8"?><svg xmlns="http://www.w3.org/2000/svg" xmlns:xlink="http://www.w3.org/1999/xlink"><symbol viewBox="0 0 51 55" id="logo" xmlns="http://www.w3.org/2000/svg"><defs><linearGradient id="aa" x1="0" x2="50.21" y1="82.24" y2="82.24" gradientUnits="userSpaceOnUse"><stop offset="0" stop-color="#fff"/><stop offset="1" stop-color="#fff"/></linearGradient><linearGradient id="ab" x1="0" x2="14.31" y1="38.14" y2="38.14" gradientUnits="userSpaceOnUse"><stop offset="0" stop-color="#fff"/><stop offset="1" stop-color="#fff"/></linearGradient><linearGradient id="ac" x1="0" x2="14.31" y1="25.8" y2="25.8" gradientUnits="userSpaceOnUse"><stop offset="0" stop-color="#fff"/><stop offset="1" stop-color="#fff"/></linearGradient><linearGradient id="ad" x1="0" x2="50.21" y1="40.68" y2="40.68" gradientUnits="userSpaceOnUse"><stop offset="0" stop-color="#fff"/><stop offset="1" stop-color="#fff"/></linearGradient><linearGradient id="ae" x1="0" x2="39.6" y1="61.46" y2="61.46" gradientUnits="userSpaceOnUse"><stop offset="0" stop-color="#fff"/><stop offset="1" stop-color="#fff"/></linearGradient></defs><path d="M6 55.017a6 6 0 01-6-6v-6.854h44.212a6 6 0 016 6v6.854z"/><path d="M0 21.384v-7.926h14.312v7.926z"/><path d="M14.312 17.42v-3.962H0l4.822 3.963z" opacity=".75"/><path d="M0 13.458V6.605a6 6 0 016-6h44.212v6.853a6 6 0 01-6 6z"/><path d="M6 34.237a6 6 0 01-6-6v-6.853h33.597a6 6 0 016 6v6.853z"/></symbol><symbol viewBox="0 0 19 11" id="mail" xmlns="http://www.w3.org/2000/svg"><path d="M10.052 5.741L2.178.015h15.031zM7.188 5.025l-6.442 5.01V.732zM7.904 5.741l2.147 1.432 1.432-1.432 6.442 5.01H2.178zM12.915 5.026L18.641.73v9.305z"/></symbol><symbol viewBox="0 0 19 19" id="phone" xmlns="http://www.w3.org/2000/svg"><path d="M9.537.549C4.532.549.46 4.62.46 9.624s4.071 9.075 9.076 9.075a9.116 9.116 0 006.447-2.692c.285-.284.252-.763-.037-1.046l-1.432-1.411c.309-.423.35-.938.095-1.427a3.877 3.877 0 00-1.534-1.587 1.474 1.474 0 00-.746-.222c-.095 0-.19.012-.283.034-.31.075-.606.22-.909.442a.563.563 0 01-.345.106.814.814 0 01-.463-.146A11.062 11.062 0 018.04 8.46c-.128-.173-.231-.55-.04-.81a2.51 2.51 0 00.442-.908c.08-.333.019-.67-.188-1.027A3.876 3.876 0 006.667 4.18a1.418 1.418 0 00-.658-.17c-.368 0-.712.16-.996.462-.26.278-.491.572-.757.927-.244.326-.223.702-.206 1.034v.007c.03.421.188.919.481 1.522.497 1.02 1.201 1.99 2.155 2.963.196.2.977.982 1.178 1.178.974.954 1.943 1.659 2.964 2.155.603.294 1.1.451 1.522.481h.007c.086.005.179.01.27.01.214 0 .49-.027.738-.2l.943.928a7.497 7.497 0 01-4.771 1.703c-4.167 0-7.557-3.39-7.557-7.557s3.39-7.557 7.557-7.557c4.166 0 7.556 3.39 7.556 7.557a.76.76 0 101.52 0c0-5.004-4.072-9.075-9.076-9.075z"/></symbol><symbol viewBox="0 0 18 21" id="user" xmlns="http://www.w3.org/2000/svg"><path d="M8.695 10.134c1.326 0 2.475-.476 3.413-1.414.939-.939 1.414-2.087 1.414-3.413 0-1.326-.475-2.475-1.414-3.413C11.169.956 10.021.48 8.695.48 7.369.48 6.22.956 5.282 1.894c-.938.938-1.414 2.087-1.414 3.413 0 1.326.476 2.474 1.414 3.413.939.938 2.087 1.414 3.413 1.414zM17.141 15.89a11.92 11.92 0 00-.162-1.266 9.98 9.98 0 00-.312-1.273 6.288 6.288 0 00-.523-1.187 4.481 4.481 0 00-.79-1.029 3.48 3.48 0 00-1.133-.712 3.919 3.919 0 00-1.447-.262c-.205 0-.403.084-.785.333-.235.153-.51.33-.817.526-.263.168-.618.324-1.058.466a4.199 4.199 0 01-1.293.21c-.43 0-.865-.071-1.294-.21-.438-.141-.794-.298-1.056-.465-.305-.195-.58-.372-.818-.528-.382-.248-.58-.332-.785-.332-.52 0-1.008.088-1.447.262-.44.174-.822.414-1.134.712a4.482 4.482 0 00-.789 1.029 6.3 6.3 0 00-.523 1.187c-.126.392-.23.82-.312 1.273-.08.45-.135.876-.162 1.267-.027.384-.04.782-.04 1.184 0 1.046.332 1.893.988 2.517.648.617 1.505.93 2.547.93h9.65c1.043 0 1.9-.313 2.547-.93.656-.624.989-1.47.989-2.518a17.1 17.1 0 00-.04-1.183z"/></symbol></svg>