<?xml version="1.0" encoding="utf-8"?><svg xmlns="http://www.w3.org/2000/svg" xmlns:xlink="http://www.w3.org/1999/xlink"><symbol viewBox="0 0 176 176" id="mob-logo" xmlns="http://www.w3.org/2000/svg"><defs><linearGradient id="aa" y1="3.116" x2="1" y2="3.116" gradientUnits="objectBoundingBox"><stop offset="0" stop-color="#65bab7"/><stop offset="1" stop-color="#4b77b0"/></linearGradient><linearGradient id="ac" x1=".234" y1=".082" x2="1.032" y2="1.335" xlink:href="#aa"/><linearGradient id="ad" x1=".266" y1="-.948" x2=".822" y2="1.307" gradientUnits="objectBoundingBox"><stop offset="0" stop-color="#65bab7"/><stop offset="1" stop-color="#4b77b0" stop-opacity="0"/></linearGradient><linearGradient id="ae" x1="0" y1=".5" x2="1" y2=".5" xlink:href="#aa"/><linearGradient id="ab" x1=".283" y1="-1.817" x2=".719" y2="2.838" gradientUnits="objectBoundingBox"><stop offset="0" stop-color="#65bab7" stop-opacity="0"/><stop offset="1" stop-color="#4b77b0"/></linearGradient><linearGradient id="af" x1=".283" y1="3.171" x2=".719" y2="7.826" xlink:href="#ab"/><linearGradient id="ag" x1=".285" y1="7.076" x2=".709" y2="14.569" xlink:href="#ab"/></defs><g data-name="Сгруппировать 166" transform="translate(-1250 -344)"><rect data-name="Прямоугольник 124" width="176" height="176" rx="56" transform="translate(1250 344)" fill="#fff"/><g data-name="Сгруппировать 143"><g data-name="Сгруппировать 15"><path data-name="Прямоугольник 4" d="M0 0h82.737a13.935 13.935 0 0113.935 13.935v10.811H15.1A15.1 15.1 0 010 9.649V0z" transform="translate(1289.664 459.633)" fill="url(#aa)"/><path data-name="Прямоугольник 5" transform="translate(1289.664 404.366)" fill="url(#ac)" d="M0 0h27.555v15.26H0z"/><path data-name="Контур 70" d="M124.2 63.5v-7.63H96.646l9.284 7.63z" transform="translate(1193.018 348.498)" opacity=".75" fill="url(#ad)" style="mix-blend-mode:multiply;isolation:isolate"/><path data-name="Прямоугольник 6" d="M15.1 0h81.572v10.811a13.935 13.935 0 01-13.935 13.935H0V15.1A15.1 15.1 0 0115.1 0z" transform="translate(1289.664 379.62)" fill="url(#ae)"/><path data-name="Прямоугольник 7" d="M0 0h55.377a20.858 20.858 0 0120.859 20.858v3.888H20.858A20.858 20.858 0 010 3.888V0z" transform="translate(1289.664 419.626)" fill="url(#aa)"/><path data-name="Контур 71" d="M97.627 44.708h95.527V34.679h-80.73a15.938 15.938 0 00-14.797 10.029z" transform="translate(1193.182 344.941)" opacity=".75" fill="url(#ab)" style="mix-blend-mode:screen;isolation:isolate"/><path data-name="Контур 72" d="M97.627 115.794h95.527v10.03h-80.73a15.937 15.937 0 01-14.797-10.03z" transform="translate(1193.182 358.555)" opacity=".75" fill="url(#af)" style="mix-blend-mode:screen;isolation:isolate"/><path data-name="Контур 73" d="M117.375 90.739a21.9 21.9 0 01-12.989-4.265h67.12c.035.513.077 1.023.077 1.545v2.72z" transform="translate(1194.317 353.634)" opacity=".75" fill="url(#ag)" style="mix-blend-mode:screen;isolation:isolate"/></g></g></g></symbol></svg>