<?xml version="1.0" encoding="utf-8"?><svg xmlns="http://www.w3.org/2000/svg" xmlns:xlink="http://www.w3.org/1999/xlink"><symbol fill="none" viewBox="0 0 34 24" id="master" xmlns="http://www.w3.org/2000/svg"><rect x=".5" y=".5" width="33" height="23" rx="3.5" fill="#fff" stroke="#D9D9D9"/><path fill-rule="evenodd" clip-rule="evenodd" d="M17.179 16.83a6.802 6.802 0 01-4.398 1.6c-3.745 0-6.781-3-6.781-6.7s3.036-6.7 6.78-6.7c1.679 0 3.215.602 4.399 1.6a6.802 6.802 0 014.398-1.6c3.745 0 6.781 3 6.781 6.7s-3.036 6.7-6.78 6.7a6.802 6.802 0 01-4.399-1.6z" fill="#ED0006"/><path fill-rule="evenodd" clip-rule="evenodd" d="M17.179 16.83a6.653 6.653 0 002.382-5.1c0-2.042-.924-3.87-2.382-5.1a6.802 6.802 0 014.398-1.6c3.745 0 6.78 3 6.78 6.7s-3.035 6.7-6.78 6.7a6.802 6.802 0 01-4.398-1.6z" fill="#F9A000"/><path fill-rule="evenodd" clip-rule="evenodd" d="M17.179 16.83a6.653 6.653 0 002.382-5.1c0-2.042-.924-3.87-2.382-5.1a6.653 6.653 0 00-2.382 5.1c0 2.042.924 3.87 2.382 5.1z" fill="#FF5E00"/></symbol><symbol fill="none" viewBox="0 0 23 23" id="next" xmlns="http://www.w3.org/2000/svg"><path d="M4.394 2.712l8.788 8.788-8.788 8.788L7.106 23l11.5-11.5L7.106 0 4.394 2.712z" fill="#fff" fill-opacity=".53"/></symbol><symbol fill="none" viewBox="0 0 34 24" id="pay-pal" xmlns="http://www.w3.org/2000/svg"><rect x=".5" y=".5" width="33" height="23" rx="3.5" fill="#fff" stroke="#D9D9D9"/><path fill-rule="evenodd" clip-rule="evenodd" d="M14.614 18.448l.22-1.449-.49-.012h-2.349l1.632-10.693a.143.143 0 01.045-.084.13.13 0 01.087-.033h3.96c1.314 0 2.22.282 2.694.84.223.262.364.536.432.837.072.316.073.693.003 1.153l-.005.034v.295l.222.13c.187.102.336.22.45.354.19.224.312.508.364.845.054.347.036.76-.052 1.227-.1.538-.265 1.006-.486 1.389a2.821 2.821 0 01-.77.872c-.294.216-.643.38-1.038.484a5.018 5.018 0 01-1.296.155h-.308a.916.916 0 00-.602.229.972.972 0 00-.315.579l-.023.13-.39 2.555-.018.093c-.004.03-.012.045-.024.055a.064.064 0 01-.04.015h-1.903z" fill="#28356A"/><path fill-rule="evenodd" clip-rule="evenodd" d="M21.276 9.075a7.3 7.3 0 01-.04.24c-.523 2.77-2.31 3.727-4.59 3.727h-1.162a.57.57 0 00-.557.494l-.764 5.003a.304.304 0 00.294.355h2.06a.5.5 0 00.49-.431l.02-.108.388-2.545.024-.14a.5.5 0 01.49-.432h.308c1.996 0 3.559-.838 4.015-3.261.191-1.013.092-1.858-.412-2.453a1.978 1.978 0 00-.564-.45z" fill="#298FC2"/><path fill-rule="evenodd" clip-rule="evenodd" d="M20.73 8.85a3.998 3.998 0 00-.509-.117 6.25 6.25 0 00-1.023-.077h-3.104a.48.48 0 00-.214.05.51.51 0 00-.275.382l-.66 4.322-.019.126a.57.57 0 01.558-.494h1.161c2.282 0 4.068-.957 4.59-3.728.015-.082.029-.161.04-.24a2.729 2.729 0 00-.546-.225z" fill="#22284F"/><path fill-rule="evenodd" clip-rule="evenodd" d="M15.605 9.089a.508.508 0 01.276-.382.48.48 0 01.214-.05h3.103c.367 0 .71.024 1.024.077a4.544 4.544 0 01.507.116l.118.037c.154.053.297.116.429.188.155-1.024-.001-1.721-.537-2.353-.59-.695-1.656-.992-3.02-.992H13.76a.572.572 0 00-.56.494l-1.648 10.804a.348.348 0 00.335.406h2.445l1.273-8.345z" fill="#28356A"/></symbol><symbol fill="none" viewBox="0 0 23 23" id="prev" xmlns="http://www.w3.org/2000/svg"><path d="M18.606 20.288L9.818 11.5l8.788-8.788L15.894 0l-11.5 11.5 11.5 11.5 2.712-2.712z" fill="#fff" fill-opacity=".53"/></symbol><symbol fill="none" viewBox="0 0 34 24" id="visa" xmlns="http://www.w3.org/2000/svg"><rect x=".5" y=".5" width="33" height="23" rx="3.5" fill="#fff" stroke="#D9D9D9"/><path fill-rule="evenodd" clip-rule="evenodd" d="M10.75 15.858H8.69L7.146 9.792c-.073-.279-.229-.525-.458-.642A6.573 6.573 0 004.8 8.51v-.234h3.318c.458 0 .801.35.859.758l.801 4.376 2.059-5.134h2.002l-3.089 7.583zm4.234 0H13.04l1.602-7.583h1.945l-1.602 7.583zm4.119-5.482c.057-.409.4-.642.801-.642a3.535 3.535 0 011.888.35l.344-1.633a4.801 4.801 0 00-1.774-.35c-1.888 0-3.262 1.05-3.262 2.507 0 1.11.973 1.692 1.66 2.042.743.35 1.03.584.972.934 0 .524-.572.758-1.143.758a4.789 4.789 0 01-2.003-.467l-.343 1.634c.687.29 1.43.408 2.117.408 2.117.058 3.432-.992 3.432-2.567 0-1.983-2.69-2.1-2.69-2.974zm9.497 5.482l-1.545-7.583h-1.659a.862.862 0 00-.801.583l-2.86 7h2.002l.4-1.108h2.46l.23 1.108H28.6zm-2.917-5.54l.571 2.857h-1.602l1.03-2.858z" fill="#172B85"/></symbol></svg>