<?xml version="1.0" encoding="utf-8"?><svg xmlns="http://www.w3.org/2000/svg" xmlns:xlink="http://www.w3.org/1999/xlink"><symbol viewBox="0 0 52 54" id="hear" xmlns="http://www.w3.org/2000/svg"><path d="M48.138 14.017a3.487 3.487 0 00-.422-3.57 26.63 26.63 0 00-9.217-7.609C34.859 1.02 30.714 0 26.313 0h-.008l-.043.001h-.002C17.457.015 9.593 4.078 4.55 10.394a3.513 3.513 0 00-.772 2.198c-.001.477.101.951.293 1.394A25.346 25.346 0 000 27.772v10.011c0 .535.431.969.963.969a.966.966 0 00.963-.969v-10.01c.001-4.477 1.272-8.653 3.46-12.234a3.613 3.613 0 001.988.607 3.614 3.614 0 002.827-1.351c3.75-4.684 9.551-7.69 16.104-7.69 3.284.002 6.292.75 8.945 2.073a19.407 19.407 0 016.73 5.56 3.608 3.608 0 002.87 1.407c.673 0 1.352-.198 1.954-.584a24.212 24.212 0 013.27 12.212v14.766c-.002 1.773-.724 2.968-1.909 4.091-1.186 1.12-2.834 2.151-4.68 2.151H32.096c-.013-1.41-1.16-2.56-2.565-2.56h-6.42c-1.412 0-2.568 1.162-2.568 2.582V50.7c0 1.421 1.156 2.584 2.568 2.584h6.42c1.406 0 2.556-1.153 2.566-2.566h11.388c2.324 0 4.451-.871 6-2.335A7.98 7.98 0 0052 42.54V27.772c.001-5.051-1.406-9.768-3.862-13.755zm-2.275-.141a1.694 1.694 0 01-1.014.332c-.52-.001-1.02-.23-1.344-.654a21.357 21.357 0 00-7.4-6.112c-2.913-1.455-6.224-2.275-9.801-2.275-7.146 0-13.501 3.283-17.604 8.413a1.69 1.69 0 01-1.326.628c-.368 0-.73-.114-1.039-.35a1.586 1.586 0 01-.631-1.266c0-.344.11-.685.348-.984 4.694-5.879 12.026-9.67 20.253-9.67H26.314c4.105 0 7.953.95 11.33 2.636a24.683 24.683 0 018.548 7.057v.001c.224.294.327.625.328.959 0 .485-.22.96-.657 1.285zM30.173 50.7c0 .35-.294.645-.642.645h-6.42a.653.653 0 01-.642-.645v-1.898c0-.35.295-.646.642-.646h6.42c.348 0 .642.296.642.647V50.7z"/><path d="M11.555 21.81H6.42c-1.411 0-2.567 1.163-2.567 2.584v16.672c0 1.421 1.156 2.583 2.567 2.583h5.136c1.413 0 2.568-1.163 2.568-2.583V24.394a2.582 2.582 0 00-2.568-2.583zm.642 19.256c0 .35-.293.646-.642.646H6.42a.653.653 0 01-.641-.646V24.394c0-.35.294-.646.641-.646h5.136c.349 0 .642.296.642.646v16.672zM45.577 21.824H40.44c-1.412 0-2.568 1.163-2.568 2.583V41.08c0 1.42 1.156 2.583 2.568 2.583h5.136c1.413 0 2.568-1.163 2.568-2.583V24.407a2.582 2.582 0 00-2.568-2.583zm.642 19.256c0 .35-.294.645-.642.645H40.44a.654.654 0 01-.642-.646V24.407c0-.35.295-.646.642-.646h5.136c.349 0 .642.296.642.646V41.08z"/></symbol><symbol viewBox="0 0 65 59" id="like" xmlns="http://www.w3.org/2000/svg"><path d="M56.698 18.605H39.324l.546-8.299a9.617 9.617 0 00-2.567-7.18C32.606-1.89 24.27-.471 21.52 5.858l-5.54 12.748H2.037A2.037 2.037 0 000 20.642v36.225c0 1.125.912 2.037 2.037 2.037h15.278a2.037 2.037 0 002.025-1.822h16.25a27.339 27.339 0 0025.853-18.46l3.1-9.03c1.848-5.383-2.137-10.987-7.845-10.987zM4.073 22.678h11.205V54.83H4.073V22.68zM60.69 28.27l-3.1 9.03a23.265 23.265 0 01-22 15.708H19.35V21.065l5.904-13.584a5.507 5.507 0 015.053-3.314 5.506 5.506 0 015.498 5.871l-.69 10.47a2.037 2.037 0 002.033 2.17h19.549c2.897 0 4.935 2.845 3.992 5.592z"/></symbol><symbol viewBox="0 0 63 42" id="mail" xmlns="http://www.w3.org/2000/svg"><path d="M59.769 0H3.231A3.24 3.24 0 000 3.23v35.54A3.24 3.24 0 003.23 42h56.54A3.24 3.24 0 0063 38.77V3.23A3.24 3.24 0 0059.769 0zm-1.212 2.423l-25.199 18.9c-.453.345-1.148.56-1.858.557-.71.004-1.405-.212-1.859-.557L4.443 2.423h54.114zM45.097 22.57l13.73 16.962c.014.017.031.03.046.045H4.127c.015-.016.032-.028.046-.045l13.73-16.962a1.211 1.211 0 00-1.883-1.525L2.423 37.841V3.937l25.765 19.324c.969.722 2.147 1.04 3.312 1.042 1.163-.002 2.342-.32 3.311-1.042L60.576 3.937v33.904L46.98 21.045a1.211 1.211 0 10-1.883 1.525z"/></symbol><symbol viewBox="0 0 57 57" id="map" xmlns="http://www.w3.org/2000/svg"><path d="M39.749 23.25a4.5 4.5 0 104.5 4.5 4.5 4.5 0 00-4.5-4.5zm0 6.75c-1.24 0-2.25-1.01-2.25-2.25s1.01-2.25 2.25-2.25 2.25 1.01 2.25 2.25S40.99 30 39.75 30z"/><path d="M28.5 0c-4.296 0-8.361.964-12.014 2.667A9.806 9.806 0 009.75 0C4.374 0 0 4.29 0 9.563c0 1.982 1.214 4.482 2.713 6.817A28.37 28.37 0 000 28.5C0 44.24 12.758 57 28.5 57S57 44.24 57 28.5 44.242 0 28.5 0zM2.25 9.563c0-4.04 3.36-7.313 7.5-7.313 4.142 0 7.5 3.272 7.5 7.313 0 4.037-7.5 12.187-7.5 12.187s-7.5-8.15-7.5-12.187zm0 18.937c0-3.517.701-6.873 1.963-9.941a58.484 58.484 0 003.882 4.714l1.655 1.8 1.655-1.8c1.352-1.468 8.095-9.032 8.095-13.71a9.363 9.363 0 00-1.517-5.102 26.07 26.07 0 015.71-1.763l-.609 1.096c-.295.534-.404 1.107-.407 1.673.006.711.172 1.43.615 2.06h-.002l1.711 2.402c.094.128.219.39.3.684.085.292.132.618.131.873.001.115-.01.216-.022.288v-.002l-.444 2.42c-.024.16-.165.477-.373.74-.202.267-.474.482-.624.546l-3.008 1.388a2.635 2.635 0 00-1.285 3.486l1.27 2.764c.066.141.142.387.192.66.05.273.079.576.079.848 0 .24-.024.46-.056.6l-.015.06-.346 1.502c-.036.18-.198.52-.422.807-.219.291-.506.535-.67.617l-2.222 1.18c-.114.064-.373.132-.646.13-.331.004-.675-.1-.803-.19l-1.818-1.171c-.604-.382-1.272-.524-1.935-.529-.61.004-1.23.126-1.799.46l-1.82 1.077a2.43 2.43 0 00-.853.833 2.208 2.208 0 00-.317 1.136 2.344 2.344 0 00.678 1.625l-.001-.001 1.019 1.063c.092.093.229.309.32.561a2.3 2.3 0 01.141.754c0 .09-.008.17-.02.231l-.203.974c-.045.23-.206.635-.419.999-.208.366-.478.708-.655.862l-.921.827a23.749 23.749 0 00-1.972 2.046A26.14 26.14 0 012.25 28.5zm18.86 20.752l-1.178 4.054A26.37 26.37 0 016.704 43.111c.102-.126.21-.263.327-.405a21.583 21.583 0 011.909-2.002l.921-.827c.437-.396.795-.885 1.102-1.413.303-.531.547-1.086.672-1.662l.204-.984c.046-.226.067-.453.067-.681a4.5 4.5 0 00-.28-1.527c-.18-.487-.43-.948-.807-1.344L9.799 31.2l-.002-.001-.04-.054.054-.044 1.822-1.078h.003c.108-.07.373-.148.65-.145.3-.004.6.088.718.171l1.816 1.17c.629.397 1.327.543 2.021.548.576-.003 1.156-.106 1.701-.391l2.223-1.18c.565-.305 1.016-.74 1.4-1.234.378-.498.682-1.047.83-1.672l.363-1.578c.078-.355.109-.717.11-1.09-.001-.418-.04-.844-.117-1.257a5.095 5.095 0 00-.36-1.189l-1.27-2.767-.002-.003-.033-.15c0-.145.085-.289.219-.347l3.009-1.389c.598-.282 1.069-.714 1.457-1.21.384-.5.685-1.063.809-1.713l.444-2.419v-.002c.042-.23.059-.46.06-.69a5.51 5.51 0 00-.219-1.492 4.525 4.525 0 00-.631-1.369l-1.71-2.402v-.002c-.095-.118-.203-.44-.197-.752-.003-.246.061-.475.123-.579l1.42-2.551c.671-.054 1.346-.09 2.03-.09 13.05 0 23.9 9.571 25.912 22.062l-1.005-.56a5.13 5.13 0 00-1.335-.487 6.55 6.55 0 00-1.428-.167c-.258 0-.513.017-.768.062l-.208.037c-1.898-3.536-5.63-5.947-9.917-5.947-6.204 0-11.25 5.047-11.25 11.25 0 3.79 3.722 9.271 6.59 12.932l-1.716 1.93c-.103.122-.365.312-.664.437-.296.13-.63.2-.83.197l-.07-.002-3.28-.253-.083-.018-.004-.001v-.012l.01-.067.004-.008.585-1.95c.082-.276.118-.554.118-.823a3.3 3.3 0 00-.374-1.506 3.028 3.028 0 00-1.066-1.18l-1.315-.822a2.717 2.717 0 00-1.445-.409 2.776 2.776 0 00-2.224 1.094l-3.988 5.317a2.629 2.629 0 00.525 3.675l1.459 1.093a.98.98 0 01.276.371c.082.176.128.387.127.549a.786.786 0 01-.026.209zm27.64-20.751c0 4.969-9 14.999-9 14.999s-9-10.03-9-15c0-4.972 4.03-9 9-9s9 4.028 9 9zM28.5 54.75c-2.211 0-4.359-.278-6.412-.796l1.183-4.076c.08-.28.115-.56.115-.834a3.577 3.577 0 00-.334-1.491 3.204 3.204 0 00-.97-1.23l-1.458-1.093a.372.372 0 01-.148-.303.36.36 0 01.073-.221l3.989-5.318c.073-.105.247-.195.423-.192.1 0 .187.026.252.066l1.315.822a.8.8 0 01.262.308c.078.149.122.33.12.47 0 .074-.01.134-.023.177l-.582 1.944a2.47 2.47 0 00-.11.727c-.003.58.22 1.152.62 1.566.397.417.957.666 1.544.71l3.28.252c.082.006.163.009.244.009a4.436 4.436 0 001.72-.381c.54-.236 1.043-.551 1.454-1.007l1.469-1.653a65.41 65.41 0 001.55 1.797l1.674 1.866 1.674-1.867C43.024 43.22 51 34.05 51 28.5a11.2 11.2 0 00-.456-3.148c.033 0 .063-.004.1-.004.278 0 .618.04.928.11.309.069.59.175.742.26l2.394 1.33c.027.482.043.965.043 1.452C54.75 42.974 42.974 54.75 28.5 54.75z"/><path d="M10.48 28.098l.014-.008.003-.002-.018.01zM9.94 5.249a3.748 3.748 0 00-3.75 3.75 3.75 3.75 0 103.75-3.75zm0 5.25a1.5 1.5 0 11.002-3 1.5 1.5 0 01-.002 3z"/></symbol><symbol viewBox="0 0 23 23" id="next" xmlns="http://www.w3.org/2000/svg"><path d="M4.394 2.712l8.788 8.788-8.788 8.788L7.106 23l11.5-11.5L7.106 0 4.394 2.712z" fill-opacity=".53"/></symbol><symbol viewBox="0 0 23 23" id="prev" xmlns="http://www.w3.org/2000/svg"><path d="M18.606 20.288L9.818 11.5l8.788-8.788L15.894 0l-11.5 11.5 11.5 11.5 2.712-2.712z" fill-opacity=".53"/></symbol><symbol viewBox="0 0 66 66" id="tag" xmlns="http://www.w3.org/2000/svg"><g clip-path="url(#gclip0)"><path d="M49.966 10.099L37.823 1.527a8.378 8.378 0 00-9.646 0L16.034 10.1a11.031 11.031 0 00-4.664 9v37.979c0 4.92 4.003 8.922 8.923 8.922h25.415c4.92 0 8.922-4.002 8.922-8.922V19.1c0-3.575-1.744-6.94-4.664-9.001zm.507 46.979a4.77 4.77 0 01-4.765 4.765H20.292a4.77 4.77 0 01-4.765-4.765V19.1a6.87 6.87 0 012.904-5.605l12.143-8.572a4.214 4.214 0 014.851 0l12.144 8.572a6.87 6.87 0 012.904 5.605v37.978z"/><path d="M33 14.062a2.75 2.75 0 100-5.5 2.75 2.75 0 000 5.5zM33.11 35.781c-1.582-.055-2.49-1.195-2.49-2.42 0-2.44 3.228-3.336 4.489-1.244a2.078 2.078 0 103.56-2.146 6.611 6.611 0 00-3.665-2.875V25.93a2.078 2.078 0 00-4.157 0v1.234a6.583 6.583 0 00-4.384 6.197c0 3.698 3.054 6.573 6.5 6.573a2.42 2.42 0 012.417 2.416c0 2.441-3.228 3.336-4.489 1.244a2.078 2.078 0 10-3.56 2.146 6.612 6.612 0 003.665 2.876v1.166a2.078 2.078 0 004.157 0v-1.235a6.583 6.583 0 004.384-6.197c0-3.575-2.87-6.49-6.427-6.569z"/></g><defs><clipPath id="gclip0"><path d="M0 0h66v66H0z"/></clipPath></defs></symbol><symbol viewBox="0 0 60 71" id="time" xmlns="http://www.w3.org/2000/svg"><path d="M38.041 12.371V5.046A5.051 5.051 0 0032.996 0H27.85a5.051 5.051 0 00-5.046 5.046v7.04a29.506 29.506 0 00-8.208 3.35l-2.241-2.716a3.92 3.92 0 00-5.513-.528l-2.376 1.961a3.913 3.913 0 00-.527 5.512l2.457 2.979C2.251 27.89 0 34.334 0 41.124 0 57.634 13.362 71 29.877 71c16.512 0 29.876-13.362 29.876-29.877 0-13.915-9.42-25.28-21.712-28.752zM27.263 5.046c0-.324.264-.588.588-.588h5.145c.324 0 .587.264.587.588v6.427a30.258 30.258 0 00-6.32-.112V5.046zm-18 10.93l1.678 2.034c-.512.42-1.011.862-1.499 1.32l-1.719-2.084 1.54-1.27zm20.614 50.566c-14.016 0-25.419-11.403-25.419-25.419s11.403-25.418 25.419-25.418c14.015 0 25.418 11.402 25.418 25.418S43.892 66.542 29.877 66.542z"/><path d="M29.877 21.4C19 21.4 10.153 30.248 10.153 41.123c0 10.876 8.848 19.724 19.724 19.724 10.875 0 19.723-8.848 19.723-19.724 0-10.875-8.848-19.723-19.723-19.723zm0 34.989c-8.418 0-15.266-6.848-15.266-15.266 0-8.417 6.848-15.265 15.266-15.265 8.417 0 15.265 6.848 15.265 15.265 0 8.418-6.848 15.266-15.265 15.266z"/><path d="M29.877 29.625a2.229 2.229 0 00-2.23 2.23v9.268a2.229 2.229 0 104.459 0v-9.269a2.229 2.229 0 00-2.23-2.229z"/></symbol><symbol viewBox="0 0 63 63" id="wallet" xmlns="http://www.w3.org/2000/svg"><g clip-path="url(#iclip0)"><path d="M57.238 15.736h-.784V8.124a5.769 5.769 0 00-5.762-5.762H8.9C4.29 2.362.486 5.89.047 10.388c-.067.318-.043-2.515-.043 41.354 0 4.905 3.99 8.896 8.896 8.896h48.338A5.768 5.768 0 0063 54.876V21.499a5.768 5.768 0 00-5.762-5.762zM8.9 6.32h41.792c.995 0 1.804.81 1.804 1.804v7.613H8.9a4.944 4.944 0 01-4.932-4.709A4.944 4.944 0 018.9 6.32zm48.338 50.36H8.9a4.944 4.944 0 01-4.938-4.938V18.195a8.845 8.845 0 004.938 1.5h48.338c.995 0 1.804.809 1.804 1.803v8.023H44.15c-5.072 0-9.198 4.126-9.198 9.198s4.127 9.198 9.198 9.198h14.892v6.959c0 .995-.81 1.804-1.804 1.804zm1.804-12.72H44.15c-2.89 0-5.24-2.352-5.24-5.241 0-2.89 2.35-5.24 5.24-5.24h14.892v10.48z"/><path d="M44.88 41.587a2.868 2.868 0 100-5.736 2.868 2.868 0 000 5.736z"/></g><defs><clipPath id="iclip0"><path d="M0 0h63v63H0z"/></clipPath></defs></symbol></svg>