<?xml version="1.0" encoding="utf-8"?><svg xmlns="http://www.w3.org/2000/svg" xmlns:xlink="http://www.w3.org/1999/xlink"><symbol viewBox="0 0 65 59" id="like" xmlns="http://www.w3.org/2000/svg"><path d="M56.698 18.605H39.324l.546-8.299a9.617 9.617 0 00-2.567-7.18C32.606-1.89 24.27-.471 21.52 5.858l-5.54 12.748H2.037A2.037 2.037 0 000 20.642v36.225c0 1.125.912 2.037 2.037 2.037h15.278a2.037 2.037 0 002.025-1.822h16.25a27.339 27.339 0 0025.853-18.46l3.1-9.03c1.848-5.383-2.137-10.987-7.845-10.987zM4.073 22.678h11.205V54.83H4.073V22.68zM60.69 28.27l-3.1 9.03a23.265 23.265 0 01-22 15.708H19.35V21.065l5.904-13.584a5.507 5.507 0 015.053-3.314 5.506 5.506 0 015.498 5.871l-.69 10.47a2.037 2.037 0 002.033 2.17h19.549c2.897 0 4.935 2.845 3.992 5.592z"/></symbol><symbol viewBox="0 0 23 23" id="next" xmlns="http://www.w3.org/2000/svg"><path d="M4.394 2.712l8.788 8.788-8.788 8.788L7.106 23l11.5-11.5L7.106 0 4.394 2.712z" fill-opacity=".53"/></symbol><symbol viewBox="0 0 23 23" id="prev" xmlns="http://www.w3.org/2000/svg"><path d="M18.606 20.288L9.818 11.5l8.788-8.788L15.894 0l-11.5 11.5 11.5 11.5 2.712-2.712z" fill-opacity=".53"/></symbol><symbol viewBox="0 0 66 66" id="tag" xmlns="http://www.w3.org/2000/svg"><g clip-path="url(#dclip0)"><path d="M49.966 10.099L37.823 1.527a8.378 8.378 0 00-9.646 0L16.034 10.1a11.031 11.031 0 00-4.664 9v37.979c0 4.92 4.003 8.922 8.923 8.922h25.415c4.92 0 8.922-4.002 8.922-8.922V19.1c0-3.575-1.744-6.94-4.664-9.001zm.507 46.979a4.77 4.77 0 01-4.765 4.765H20.292a4.77 4.77 0 01-4.765-4.765V19.1a6.87 6.87 0 012.904-5.605l12.143-8.572a4.214 4.214 0 014.851 0l12.144 8.572a6.87 6.87 0 012.904 5.605v37.978z"/><path d="M33 14.062a2.75 2.75 0 100-5.5 2.75 2.75 0 000 5.5zM33.11 35.781c-1.582-.055-2.49-1.195-2.49-2.42 0-2.44 3.228-3.336 4.489-1.244a2.078 2.078 0 103.56-2.146 6.611 6.611 0 00-3.665-2.875V25.93a2.078 2.078 0 00-4.157 0v1.234a6.583 6.583 0 00-4.384 6.197c0 3.698 3.054 6.573 6.5 6.573a2.42 2.42 0 012.417 2.416c0 2.441-3.228 3.336-4.489 1.244a2.078 2.078 0 10-3.56 2.146 6.612 6.612 0 003.665 2.876v1.166a2.078 2.078 0 004.157 0v-1.235a6.583 6.583 0 004.384-6.197c0-3.575-2.87-6.49-6.427-6.569z"/></g><defs><clipPath id="dclip0"><path d="M0 0h66v66H0z"/></clipPath></defs></symbol><symbol viewBox="0 0 60 71" id="time" xmlns="http://www.w3.org/2000/svg"><path d="M38.041 12.371V5.046A5.051 5.051 0 0032.996 0H27.85a5.051 5.051 0 00-5.046 5.046v7.04a29.506 29.506 0 00-8.208 3.35l-2.241-2.716a3.92 3.92 0 00-5.513-.528l-2.376 1.961a3.913 3.913 0 00-.527 5.512l2.457 2.979C2.251 27.89 0 34.334 0 41.124 0 57.634 13.362 71 29.877 71c16.512 0 29.876-13.362 29.876-29.877 0-13.915-9.42-25.28-21.712-28.752zM27.263 5.046c0-.324.264-.588.588-.588h5.145c.324 0 .587.264.587.588v6.427a30.258 30.258 0 00-6.32-.112V5.046zm-18 10.93l1.678 2.034c-.512.42-1.011.862-1.499 1.32l-1.719-2.084 1.54-1.27zm20.614 50.566c-14.016 0-25.419-11.403-25.419-25.419s11.403-25.418 25.419-25.418c14.015 0 25.418 11.402 25.418 25.418S43.892 66.542 29.877 66.542z"/><path d="M29.877 21.4C19 21.4 10.153 30.248 10.153 41.123c0 10.876 8.848 19.724 19.724 19.724 10.875 0 19.723-8.848 19.723-19.724 0-10.875-8.848-19.723-19.723-19.723zm0 34.989c-8.418 0-15.266-6.848-15.266-15.266 0-8.417 6.848-15.265 15.266-15.265 8.417 0 15.265 6.848 15.265 15.265 0 8.418-6.848 15.266-15.265 15.266z"/><path d="M29.877 29.625a2.229 2.229 0 00-2.23 2.23v9.268a2.229 2.229 0 104.459 0v-9.269a2.229 2.229 0 00-2.23-2.229z"/></symbol><symbol viewBox="0 0 63 63" id="wallet" xmlns="http://www.w3.org/2000/svg"><g clip-path="url(#fclip0)"><path d="M57.238 15.736h-.784V8.124a5.769 5.769 0 00-5.762-5.762H8.9C4.29 2.362.486 5.89.047 10.388c-.067.318-.043-2.515-.043 41.354 0 4.905 3.99 8.896 8.896 8.896h48.338A5.768 5.768 0 0063 54.876V21.499a5.768 5.768 0 00-5.762-5.762zM8.9 6.32h41.792c.995 0 1.804.81 1.804 1.804v7.613H8.9a4.944 4.944 0 01-4.932-4.709A4.944 4.944 0 018.9 6.32zm48.338 50.36H8.9a4.944 4.944 0 01-4.938-4.938V18.195a8.845 8.845 0 004.938 1.5h48.338c.995 0 1.804.809 1.804 1.803v8.023H44.15c-5.072 0-9.198 4.126-9.198 9.198s4.127 9.198 9.198 9.198h14.892v6.959c0 .995-.81 1.804-1.804 1.804zm1.804-12.72H44.15c-2.89 0-5.24-2.352-5.24-5.241 0-2.89 2.35-5.24 5.24-5.24h14.892v10.48z"/><path d="M44.88 41.587a2.868 2.868 0 100-5.736 2.868 2.868 0 000 5.736z"/></g><defs><clipPath id="fclip0"><path d="M0 0h63v63H0z"/></clipPath></defs></symbol></svg>